#
#
#

mtllib box.mtl


#
# Cube Mesh
#
g Cube Mesh


#
# Cube Mesh_Cube_Phong[21]
#
usemtl Cube Mesh_Cube_Phong[21]

v -1.000000 1.000000 1.000000
v 1.000000 1.000000 1.000000
v 1.000000 1.000000 -1.000000
v -1.000000 1.000000 -1.000000
v 1.000000 -1.000000 -1.000000
v -1.000000 -1.000000 -1.000000
v 1.000000 -1.000000 1.000000
v -1.000000 -1.000000 1.000000
vn -0.666667 0.666667 0.333333
vn 0.408248 0.408248 0.816497
vn 0.666667 0.666667 -0.333333
vn -0.408248 0.408248 -0.816497
vn 0.408248 -0.408248 -0.816497
vn -0.666667 -0.666667 -0.333333
vn 0.666667 -0.666667 0.333333
vn -0.408248 -0.408248 0.816497
vt 0.250000 0.750000
vt 0.500000 0.750000
vt 0.500000 1.000000
vt 0.250000 1.000000
vt 0.250000 0.500000
vt 0.500000 0.500000
vt 0.750000 0.250000
vt 0.500000 0.250000
vt 0.500000 0.000000
vt 0.750000 0.000000
vt 0.250000 0.250000
vt 0.250000 0.000000
vt 0.000000 0.250000
vt 0.000000 0.000000
f 1/1/1 2/2/2 3/3/3
f 1/1/1 3/3/3 4/4/4
f 4/2/4 3/1/3 5/5/5
f 4/2/4 5/5/5 6/6/6
f 3/7/3 2/8/2 7/9/7
f 3/7/3 7/9/7 5/10/5
f 2/8/2 1/11/1 8/12/8
f 2/8/2 8/12/8 7/9/7
f 1/11/1 4/13/4 6/14/6
f 1/11/1 6/14/6 8/12/8
f 6/6/6 5/5/5 7/11/7
f 6/6/6 7/11/7 8/8/8
