#
#
#

mtllib plane.mtl


#
# Plane
#
g Plane


#
# Plane_Phong[19]
#
usemtl Plane_Phong[19]

v 10.000000 0.000000 -10.000000
v -10.000000 0.000000 -10.000000
v -10.000000 0.000000 10.000000
v 10.000000 0.000000 10.000000
v 0.000000 0.000000 0.000000
v 0.000000 0.000000 -10.000000
v -10.000000 0.000000 0.000000
v 0.000000 0.000000 10.000000
v 10.000000 0.000000 0.000000
v 5.000000 0.000000 -5.000000
v 5.000000 0.000000 -10.000000
v 0.000000 0.000000 -5.000000
v 5.000000 0.000000 0.000000
v 10.000000 0.000000 -5.000000
v -5.000000 0.000000 -5.000000
v -10.000000 0.000000 -5.000000
v -5.000000 0.000000 0.000000
v -5.000000 0.000000 -10.000000
v -5.000000 0.000000 5.000000
v -5.000000 0.000000 10.000000
v 0.000000 0.000000 5.000000
v -10.000000 0.000000 5.000000
v 5.000000 0.000000 5.000000
v 10.000000 0.000000 5.000000
v 5.000000 0.000000 10.000000
vn 0.000000 1.000000 0.000000
vt 1.000000 0.000000
vt 0.750000 0.000000
vt 0.750000 0.250000
vt 1.000000 0.250000
vt 0.500000 0.000000
vt 0.500000 0.250000
vt 0.500000 0.500000
vt 0.750000 0.500000
vt 1.000000 0.500000
vt 0.000000 0.000000
vt 0.000000 0.250000
vt 0.250000 0.250000
vt 0.250000 0.000000
vt 0.000000 0.500000
vt 0.250000 0.500000
vt 0.000000 1.000000
vt 0.250000 1.000000
vt 0.250000 0.750000
vt 0.000000 0.750000
vt 0.500000 1.000000
vt 0.500000 0.750000
vt 1.000000 1.000000
vt 1.000000 0.750000
vt 0.750000 0.750000
vt 0.750000 1.000000
f 1/1/1 11/2/1 10/3/1
f 1/1/1 10/3/1 14/4/1
f 6/5/1 12/6/1 10/3/1
f 6/5/1 10/3/1 11/2/1
f 5/7/1 13/8/1 10/3/1
f 5/7/1 10/3/1 12/6/1
f 9/9/1 14/4/1 10/3/1
f 9/9/1 10/3/1 13/8/1
f 2/10/1 16/11/1 15/12/1
f 2/10/1 15/12/1 18/13/1
f 7/14/1 17/15/1 15/12/1
f 7/14/1 15/12/1 16/11/1
f 5/7/1 12/6/1 15/12/1
f 5/7/1 15/12/1 17/15/1
f 6/5/1 18/13/1 15/12/1
f 6/5/1 15/12/1 12/6/1
f 3/16/1 20/17/1 19/18/1
f 3/16/1 19/18/1 22/19/1
f 8/20/1 21/21/1 19/18/1
f 8/20/1 19/18/1 20/17/1
f 5/7/1 17/15/1 19/18/1
f 5/7/1 19/18/1 21/21/1
f 7/14/1 22/19/1 19/18/1
f 7/14/1 19/18/1 17/15/1
f 4/22/1 24/23/1 23/24/1
f 4/22/1 23/24/1 25/25/1
f 9/9/1 13/8/1 23/24/1
f 9/9/1 23/24/1 24/23/1
f 5/7/1 21/21/1 23/24/1
f 5/7/1 23/24/1 13/8/1
f 8/20/1 25/25/1 23/24/1
f 8/20/1 23/24/1 21/21/1
